<?xml version="1.0" encoding="UTF-8" standalone="no" ?>
<!DOCTYPE svg PUBLIC "-//W3C//DTD SVG 1.1//EN" "http://www.w3.org/Graphics/SVG/1.1/DTD/svg11.dtd">
<svg xmlns="http://www.w3.org/2000/svg" xmlns:xlink="http://www.w3.org/1999/xlink" version="1.1" width="1280" height="1024" viewBox="0 0 1280 1024" xml:space="preserve">
<desc>Created with Fabric.js 4.4.0</desc>
<defs>
</defs>
<g transform="matrix(1 0 0 1 640 512)" id="background-logo"  >
<rect style="stroke: none; stroke-width: 0; stroke-dasharray: none; stroke-linecap: butt; stroke-dashoffset: 0; stroke-linejoin: miter; stroke-miterlimit: 4; fill: rgb(255,255,255); fill-opacity: 0; fill-rule: nonzero; opacity: 1;"  paint-order="stroke"  x="-640" y="-512" rx="0" ry="0" width="1280" height="1024" />
</g>
<g transform="matrix(1.9211538461538462 0 0 1.9211538461538462 640 406.62473376640605)" id="logo-logo"  >
<g style=""  paint-order="stroke"   >
		<g transform="matrix(0.908018397114089 0 0 0.908018397114089 0 0)"  >
<g style=""  paint-order="stroke"   >
		<g transform="matrix(1 0 0 1 5 5.384999999999991)"  >
<linearGradient id="SVGID_1_468016" gradientUnits="userSpaceOnUse" gradientTransform="matrix(1 0 0 1 -95 -94.49499999999999)"  x1="0" y1="0" x2="0" y2="190">
<stop offset="0%" style="stop-color:rgb(98,39,116);stop-opacity: 1"/>
<stop offset="100%" style="stop-color:rgb(197,51,100);stop-opacity: 1"/>
</linearGradient>
<polygon style="stroke: none; stroke-width: 1; stroke-dasharray: none; stroke-linecap: butt; stroke-dashoffset: 0; stroke-linejoin: miter; stroke-miterlimit: 4; fill: url(#SVGID_1_468016); fill-rule: nonzero; opacity: 1;"  paint-order="stroke"  points="83.94999999999999,-94.49499999999999 83.94999999999999,83.73500000000001 -95,83.73500000000001 -95,94.495 95,94.495 95,-94.49499999999999 83.94999999999999,-94.49499999999999 " />
</g>
		<g transform="matrix(1 0 0 1 -10.5 -10.379999999999995)"  >
<linearGradient id="SVGID_2_468017" gradientUnits="userSpaceOnUse" gradientTransform="matrix(1 0 0 1 -89.5 -89.5)"  x1="0" y1="0" x2="0" y2="180">
<stop offset="0%" style="stop-color:rgb(98,39,116);stop-opacity: 1"/>
<stop offset="100%" style="stop-color:rgb(197,51,100);stop-opacity: 1"/>
</linearGradient>
<polygon style="stroke: none; stroke-width: 1; stroke-dasharray: none; stroke-linecap: butt; stroke-dashoffset: 0; stroke-linejoin: miter; stroke-miterlimit: 4; fill: url(#SVGID_2_468017); fill-rule: nonzero; opacity: 1;"  paint-order="stroke"  points="89.5,89.5 89.5,-68.73 89.5,-79.5 89.5,-89.5 -89.5,-89.5 -89.5,89.5 -79.5,89.5 -69.5,89.5 89.5,89.5 " />
</g>
</g>
</g>
</g>
</g>
<g transform="matrix(1.9211538461538462 0 0 1.9211538461538462 632.2139615721153 702.529245184383)" id="text-logo"  >
<g style=""  paint-order="stroke"   >
		<g transform="matrix(1 0 0 1 0 -23.339400000000012)" id="text-logo-path-0"  >
<path style="stroke: rgb(110,44,116); stroke-width: 0; stroke-dasharray: none; stroke-linecap: butt; stroke-dashoffset: 0; stroke-linejoin: miter; stroke-miterlimit: 4; fill: rgb(196,60,108); fill-rule: nonzero; opacity: 1;"  paint-order="stroke"  transform=" translate(-168.065, 12.42)" d="M 20.58 0 L 3.43 0 L 3.43 -24.84 L 20.23 -24.84 L 20.23 -21.71 L 7.38 -21.71 L 7.38 -14.01 L 19.23 -14.01 L 19.23 -10.86 L 7.38 -10.86 L 7.38 -3.16 L 20.58 -3.16 L 20.58 0 Z M 47.83 0 L 39.16 -24.84 L 43.43 -24.84 L 50.46 -3.02 L 57.65 -24.84 L 61.87 -24.84 L 52.94 0 L 47.83 0 Z M 79.82 -12.43 L 79.82 -12.43 Q 79.82 -15.31 80.63 -17.69 Q 81.44 -20.07 82.95 -21.77 Q 84.46 -23.47 86.73 -24.41 Q 88.99 -25.35 91.81 -25.35 L 91.81 -25.35 Q 95.53 -25.35 98.26 -23.72 Q 100.98 -22.1 102.37 -19.19 Q 103.76 -16.28 103.76 -12.43 Q 103.76 -8.58 102.37 -5.68 Q 100.98 -2.78 98.26 -1.13 Q 95.53 0.51 91.81 0.51 L 91.81 0.51 Q 88.06 0.51 85.33 -1.13 Q 82.6 -2.78 81.21 -5.68 Q 79.82 -8.58 79.82 -12.43 Z M 84.07 -12.43 L 84.07 -12.43 Q 84.07 -7.8 86.13 -5.16 Q 88.19 -2.51 91.81 -2.51 L 91.81 -2.51 Q 95.41 -2.51 97.47 -5.16 Q 99.52 -7.8 99.52 -12.43 L 99.52 -12.43 Q 99.52 -17.07 97.48 -19.7 Q 95.43 -22.32 91.81 -22.32 L 91.81 -22.32 Q 88.17 -22.32 86.12 -19.7 Q 84.07 -17.07 84.07 -12.43 Z M 142.06 0 L 124.9 0 L 124.9 -24.84 L 128.86 -24.84 L 128.86 -3.27 L 142.06 -3.27 L 142.06 0 Z M 162.22 -9.62 L 162.22 -9.62 L 162.22 -24.84 L 166.14 -24.84 L 166.14 -9.54 Q 166.14 -8.24 166.23 -7.52 L 166.23 -7.52 Q 166.42 -5.2 167.88 -3.86 Q 169.34 -2.51 171.94 -2.51 L 171.94 -2.51 Q 174.58 -2.51 176.05 -3.86 Q 177.51 -5.2 177.71 -7.52 L 177.71 -7.52 Q 177.78 -8.1 177.78 -9.54 L 177.78 -9.54 L 177.78 -24.84 L 181.7 -24.84 L 181.7 -9.62 Q 181.7 -7.98 181.63 -7.05 L 181.63 -7.05 Q 181.49 -5.45 180.86 -4.11 Q 180.24 -2.78 179.1 -1.72 Q 177.95 -0.67 176.12 -0.08 Q 174.3 0.51 171.94 0.51 Q 169.59 0.51 167.76 -0.08 Q 165.93 -0.67 164.79 -1.72 Q 163.64 -2.78 163.03 -4.11 Q 162.41 -5.45 162.29 -7.05 L 162.29 -7.05 Q 162.22 -7.98 162.22 -9.62 Z M 210.07 -21.71 L 201.38 -21.71 L 201.38 -24.84 L 222.67 -24.84 L 222.67 -21.71 L 213.99 -21.71 L 213.99 0 L 210.07 0 L 210.07 -21.71 Z M 246.35 0 L 242.39 0 L 242.39 -24.84 L 246.35 -24.84 L 246.35 0 Z M 267.1 -12.43 L 267.1 -12.43 Q 267.1 -15.31 267.91 -17.69 Q 268.72 -20.07 270.23 -21.77 Q 271.74 -23.47 274.01 -24.41 Q 276.28 -25.35 279.09 -25.35 L 279.09 -25.35 Q 282.82 -25.35 285.54 -23.72 Q 288.27 -22.1 289.66 -19.19 Q 291.04 -16.28 291.04 -12.43 Q 291.04 -8.58 289.66 -5.68 Q 288.27 -2.78 285.54 -1.13 Q 282.82 0.51 279.09 0.51 L 279.09 0.51 Q 275.35 0.51 272.61 -1.13 Q 269.88 -2.78 268.49 -5.68 Q 267.1 -8.58 267.1 -12.43 Z M 271.36 -12.43 L 271.36 -12.43 Q 271.36 -7.8 273.41 -5.16 Q 275.47 -2.51 279.09 -2.51 L 279.09 -2.51 Q 282.7 -2.51 284.75 -5.16 Q 286.81 -7.8 286.81 -12.43 L 286.81 -12.43 Q 286.81 -17.07 284.76 -19.7 Q 282.71 -22.32 279.09 -22.32 L 279.09 -22.32 Q 275.45 -22.32 273.41 -19.7 Q 271.36 -17.07 271.36 -12.43 Z M 316.14 0 L 312.19 0 L 312.19 -24.84 L 317.76 -24.84 L 328.89 -4.22 Q 328.78 -8.44 328.78 -12.88 L 328.78 -12.88 L 328.78 -24.84 L 332.67 -24.84 L 332.7 0 L 327.01 0 L 316 -20.48 Q 316.14 -16.68 316.14 -11.88 L 316.14 -11.88 L 316.14 0 Z" stroke-linecap="round" />
</g>
		<g transform="matrix(1 0 0 1 25.328109374999997 23.849399999999946)" id="text-logo-path-1"  >
<path style="stroke: rgb(110,44,116); stroke-width: 0; stroke-dasharray: none; stroke-linecap: butt; stroke-dashoffset: 0; stroke-linejoin: miter; stroke-miterlimit: 4; fill: rgb(196,60,108); fill-rule: nonzero; opacity: 1;"  paint-order="stroke"  transform=" translate(-86.77000000000001, 12.42)" d="M 11.3 0 L 3.43 0 L 3.43 -24.84 L 11.44 -24.84 Q 13.34 -24.84 14.61 -24.7 L 14.61 -24.7 Q 16.8 -24.43 18.61 -23.58 Q 20.41 -22.73 21.77 -21.28 Q 23.13 -19.83 23.88 -17.65 Q 24.63 -15.47 24.63 -12.71 L 24.63 -12.71 Q 24.63 -9.98 23.85 -7.73 Q 23.08 -5.47 21.71 -3.9 Q 20.34 -2.34 18.49 -1.37 Q 16.65 -0.4 14.47 -0.14 L 14.47 -0.14 Q 13.2 0 11.3 0 L 11.3 0 Z M 7.38 -21.71 L 7.38 -3.16 L 10.95 -3.16 Q 12.99 -3.16 13.78 -3.3 L 13.78 -3.3 Q 16.82 -3.74 18.6 -6.2 Q 20.37 -8.65 20.37 -12.71 L 20.37 -12.71 Q 20.37 -16.56 18.67 -18.83 Q 16.96 -21.09 13.94 -21.53 L 13.94 -21.53 Q 12.96 -21.71 11.09 -21.71 L 11.09 -21.71 L 7.38 -21.71 Z M 49.67 0 L 45.72 0 L 45.72 -24.84 L 49.67 -24.84 L 49.67 0 Z M 73.72 0 L 69.5 0 L 78.43 -24.84 L 83.54 -24.84 L 92.21 0 L 87.94 0 L 85.23 -8.21 L 76.41 -8.21 L 73.72 0 Z M 80.91 -21.57 L 77.46 -11.34 L 84.2 -11.34 L 80.91 -21.57 Z M 116.08 0 L 112.12 0 L 112.12 -24.84 L 120.69 -24.84 Q 122.92 -24.84 124.11 -24.7 L 124.11 -24.7 Q 127.01 -24.31 128.71 -22.7 Q 130.41 -21.09 130.41 -18.07 L 130.41 -18.07 Q 130.41 -15.75 129.15 -14.26 Q 127.89 -12.76 125.8 -12.13 L 125.8 -12.13 Q 128.79 -10.83 129.21 -6.42 L 129.21 -6.42 Q 129.42 -4.01 129.82 -2.5 Q 130.21 -1 130.95 0 L 130.95 0 L 126.59 0 Q 125.71 -2.2 125.33 -5.91 L 125.33 -5.91 Q 125.08 -7.98 124.24 -9.11 Q 123.39 -10.23 121.76 -10.34 L 121.76 -10.34 Q 121.14 -10.37 119.93 -10.37 L 119.93 -10.37 L 116.08 -10.37 L 116.08 0 Z M 116.08 -21.71 L 116.08 -13.43 L 120.21 -13.43 Q 121.83 -13.43 122.44 -13.5 L 122.44 -13.5 Q 124.17 -13.68 125.19 -14.68 Q 126.22 -15.68 126.22 -17.56 L 126.22 -17.56 Q 126.22 -19.46 125.34 -20.4 Q 124.46 -21.34 122.78 -21.57 L 122.78 -21.57 Q 121.92 -21.71 120.47 -21.71 L 120.47 -21.71 L 116.08 -21.71 Z M 157.4 -9.72 L 148.62 -24.84 L 153.12 -24.84 L 159.51 -13.36 L 165.72 -24.84 L 170.11 -24.84 L 161.32 -9.72 L 161.32 0 L 157.4 0 L 157.4 -9.72 Z" stroke-linecap="round" />
</g>
</g>
</g>
<g transform="matrix(1.9211538461538462 0 0 1.9211538461538462 638.621091826923 399.80436865102166)" id="tagline-892c70df-90f6-45fd-8529-3281b2ead625-logo"  >
<g style=""  paint-order="stroke"   >
		<g transform="matrix(1 0 0 1 0 0)" id="tagline-892c70df-90f6-45fd-8529-3281b2ead625-logo-path-0"  >
<path style="stroke: none; stroke-width: 0; stroke-dasharray: none; stroke-linecap: butt; stroke-dashoffset: 0; stroke-linejoin: miter; stroke-miterlimit: 4; fill: rgb(255,255,255); fill-rule: nonzero; opacity: 1;"  paint-order="stroke"  transform=" translate(-22.675, 34.65)" d="M 3.47 0 L 41.88 0 L 41.88 -11.88 L 15.35 -11.88 L 15.35 -28.71 L 36.93 -28.71 L 36.93 -40.59 L 15.35 -40.59 L 15.35 -57.42 L 41.88 -57.42 L 41.88 -69.3 L 3.47 -69.3 Z" stroke-linecap="round" />
</g>
</g>
</g>
</svg>